2010.05.09-F1.05.Spain.Race.BBC1_UK-TDMK1.m4v

Jake Humphrey introduces live coverage from Circuit de Catalunya, near Barcelona, with analysis from Eddie Jordan. Commentary comes from Jonathan Legard and Martin Brundle.

MP4 - 640x352 - 800Kb/s H264 Video - 44.1KHz/128Kbps Stereo AAC Audio

My belief is this is the best all round setup, and hopefully you will agree!

This video will play on a computer with VLC, XBMC, XBox360, PS3, all iPhones - enjoy the show... :)

General
Complete name                    : 2010.05.09-F1.05.Spain.Race.BBC1_UK-TDMK1.m4v
Format                           : MPEG-4
Format profile                   : Base Media / Version 2
Codec ID                         : mp42
File size                        : 1.19 GiB
Duration                         : 3h 2mn
Overall bit rate                 : 933 Kbps
Encoded date                     : UTC 2010-05-09 19:56:08
Tagged date                      : UTC 2010-05-09 22:59:15
Writing application              : HandBrake 0.9.4 2009112300

Video
ID                               : 1
Format                           : AVC
Format/Info                      : Advanced Video Codec
Format profile                   : Main@L3.0
Format settings, CABAC           : Yes
Format settings, ReFrames        : 2 frames
Codec ID                         : avc1
Codec ID/Info                    : Advanced Video Coding
Duration                         : 3h 2mn
Bit rate mode                    : Variable
Bit rate                         : 800 Kbps
Width                            : 640 pixels
Height                           : 352 pixels
Display aspect ratio             : 16:9
Frame rate mode                  : Variable
Frame rate                       : 25.000 fps
Minimum frame rate               : 12.498 fps
Maximum frame rate               : 25.000 fps
Resolution                       : 8 bits
Colorimetry                      : 4:2:0
Scan type                        : Progressive
Bits/(Pixel*Frame)               : 0.142
Stream size                      : 1.02 GiB (86%)
Writing library                  : x264 core 79
Encoding settings                : cabac=1 / ref=2 / deblock=1:0:0 / analyse=0x1:0x111 / me=hex / subme=6 / psy=1 / psy_rd=1.0:0.0 / mixed_ref=0 / me_range=16 / chroma_me=1 / trellis=0 / 8x8dct=0 / cqm=0 / deadzone=21,11 / chroma_qp_offset=-2 / threads=6 / nr=0 / decimate=1 / mbaff=0 / constrained_intra=0 / bframes=2 / b_pyramid=0 / b_adapt=1 / b_bias=0 / direct=1 / wpredb=0 / wpredp=2 / keyint=250 / keyint_min=25 / scenecut=40 / rc_lookahead=40 / rc=abr / mbtree=1 / bitrate=800 / ratetol=1.0 / qcomp=0.60 / qpmin=10 / qpmax=51 / qpstep=4 / ip_ratio=1.40 / aq=1:1.00
Encoded date                     : UTC 2010-05-09 19:56:08
Tagged date                      : UTC 2010-05-09 22:59:15
Color primaries                  : BT.601-6 525, BT.1358 525, BT.1700 NTSC, SMPTE 170M
Transfer characteristics         : BT.709-5, BT.1361
Matrix coefficients              : BT.601-6 525, BT.1358 525, BT.1700 NTSC, SMPTE 170M

Audio
ID                               : 2
Format                           : AAC
Format/Info                      : Advanced Audio Codec
Format version                   : Version 4
Format profile                   : LC
Format settings, SBR             : No
Codec ID                         : 40
Duration                         : 3h 2mn
Bit rate mode                    : Variable
Bit rate                         : 128 Kbps
Maximum bit rate                 : 172 Kbps
Channel(s)                       : 2 channels
Channel positions                : Front: L R
Sampling rate                    : 44.1 KHz
Stream size                      : 167 MiB (14%)
Encoded date                     : UTC 2010-05-09 19:56:08
Tagged date                      : UTC 2010-05-09 22:59:12

